<svg width="40" height="40" viewBox="0 0 40 40" xmlns="http://www.w3.org/2000/svg" xmlns:xlink="http://www.w3.org/1999/xlink"><title>ico_c_mini</title><defs><rect id="a" x="5" y="3" width="30" height="34" rx="1"/></defs><g fill="none" fill-rule="evenodd"><path d="M0 0h40v40H0z"/><g><use fill="#FFF" xlink:href="#a"/><rect stroke="#E0E0E0" x="5.5" y="3.5" width="29" height="33" rx="1"/></g><path d="M28 22l-6 4v-3l4.5-3-4.5-3v-3l6 4s1.2.715 1.2 2c0 1.285-1.2 2-1.2 2zm-16-4l6-4v3l-4.5 3 4.5 3v3l-6-4s-1.2-.715-1.2-2c0-1.285 1.2-2 1.2-2z" fill="#7C878E"/></g></svg>